<svg width="18" height="18" viewBox="0 0 18 18" fill="none" xmlns="http://www.w3.org/2000/svg">
<g clip-path="url(#clip0_2386_60294)">
<path d="M10.5 1.66636C10.015 1.56736 9.515 1.51736 9 1.51636C4.85775 1.51636 1.5 4.87036 1.5 9.00811C1.5 13.1459 4.85775 16.4999 9 16.4999C13.1422 16.4999 16.5 13.1459 16.5 9.00811C16.499 8.49461 16.449 7.99511 16.35 7.50961" stroke="#783FE4" stroke-width="1.125" stroke-linecap="round"/>
<path d="M8.99951 6.76048C8.17076 6.76048 7.49951 7.26373 7.49951 7.88473C7.49951 8.50498 8.17076 9.00823 8.99951 9.00823C9.82826 9.00823 10.4995 9.51073 10.4995 10.1317C10.4995 10.7527 9.82826 11.256 8.99951 11.256M8.99951 6.76048C9.65201 6.76048 10.2085 7.07323 10.414 7.51048M8.99951 6.76048V6.01123M8.99951 11.256C8.34701 11.256 7.79051 10.9432 7.58501 10.506M8.99951 11.256V12.0052" stroke="#783FE4" stroke-width="1.125" stroke-linecap="round"/>
<path d="M16.4958 1.5L13.3646 4.6305M12.7466 1.89075L12.8351 4.20675C12.8351 4.75275 13.1613 5.09325 13.7561 5.136L16.0991 5.24625" stroke="#783FE4" stroke-width="1.125" stroke-linecap="round" stroke-linejoin="round"/>
</g>
<defs>
<clipPath id="clip0_2386_60294">
<rect width="18" height="18" fill="white"/>
</clipPath>
</defs>
</svg>
