<svg width="31" height="31" viewBox="0 0 31 31" fill="none" xmlns="http://www.w3.org/2000/svg">
<g clip-path="url(#clip0_5041_1220)">
<mask id="mask0_5041_1220" style="mask-type:luminance" maskUnits="userSpaceOnUse" x="0" y="0" width="31" height="31">
<path d="M0 0H30.3333V30.3333H0V0Z" fill="white"/>
</mask>
<g mask="url(#mask0_5041_1220)">
<path d="M30.3333 0H0V30.3333H30.3333V0Z" fill="#2775CA"/>
<path fill-rule="evenodd" clip-rule="evenodd" d="M15.1668 25.2779C20.7721 25.2779 25.2779 20.7721 25.2779 15.1668C25.2779 9.56143 20.7721 5.05566 15.1668 5.05566C9.56143 5.05566 5.05566 9.56143 5.05566 15.1668C5.05566 20.7721 9.56143 25.2779 15.1668 25.2779ZM17.9473 16.7656C17.9473 15.2932 17.0626 14.7876 15.2932 14.5791C14.0293 14.4084 13.7765 14.0735 13.7765 13.4795C13.7765 12.8918 14.1999 12.5126 15.0404 12.5126C15.7987 12.5126 16.2221 12.7654 16.4307 13.3973C16.4749 13.5237 16.6013 13.6059 16.7277 13.6059H17.3975C17.5682 13.6059 17.6946 13.4795 17.6946 13.3152V13.2697C17.5239 12.342 16.7656 11.4573 15.7987 11.3738V10.4462C15.7987 10.2755 15.6723 10.1491 15.4638 10.1112H14.9077C14.7371 10.1112 14.5791 10.2376 14.5348 10.4462V11.3751C13.2709 11.5457 12.4305 12.5126 12.4305 13.568C12.4305 14.9582 13.2709 15.5017 15.0404 15.7166C16.2221 15.9251 16.6013 16.1779 16.6013 16.8541C16.6013 17.5239 16.0073 17.9916 15.211 17.9916C14.1114 17.9916 13.7323 17.5239 13.6059 16.892C13.568 16.7277 13.4416 16.6392 13.3152 16.6392H12.5948C12.4305 16.6392 12.3041 16.7656 12.3041 16.9362V16.9805C12.4684 18.0295 13.1446 18.7499 14.5348 18.9584V19.8937C14.5348 20.0643 14.6612 20.1768 14.8698 20.2223H15.4764C15.6407 20.2223 15.7545 20.1086 15.7987 19.8937V18.9584C17.0626 18.7499 17.9473 17.9031 17.9473 16.7656ZM10.9125 19.9127C11.523 20.4726 12.2396 20.9061 13.0182 21.1892C13.1446 21.2777 13.2709 21.442 13.2709 21.5684V22.1624C13.2709 22.2433 13.2709 22.2888 13.2267 22.3267C13.1888 22.4961 13.0182 22.5795 12.8475 22.4961C11.314 22.0081 9.97546 21.0449 9.02558 19.7458C8.07569 18.4467 7.56372 16.8791 7.56372 15.2698C7.56372 13.6605 8.07569 12.0929 9.02558 10.7938C9.97546 9.49471 11.314 8.53149 12.8475 8.0435C12.8918 8.00558 12.9739 8.00558 13.0182 8.00558C13.1888 8.0435 13.2709 8.16989 13.2709 8.34051V8.92822C13.2709 9.14308 13.1888 9.26947 13.0182 9.35162C12.1565 9.6624 11.3739 10.1593 10.7262 10.8071C10.0785 11.4548 9.58151 12.2374 9.27073 13.0991C8.83553 14.2692 8.75929 15.5427 9.05176 16.7564C9.34422 17.9702 9.9921 19.0691 10.9125 19.9127ZM17.1068 8.21539C17.1448 8.04476 17.3154 7.96261 17.486 8.04476C18.6443 8.42126 19.696 9.06901 20.5533 9.93408C21.4107 10.7992 22.049 11.8565 22.4152 13.0182C23.6791 17.0184 21.4862 21.2777 17.486 22.5416C17.4418 22.5795 17.3596 22.5795 17.3154 22.5795C17.1448 22.5416 17.0626 22.4152 17.0626 22.2446V21.6568C17.0626 21.442 17.1448 21.3156 17.3154 21.2334C18.1771 20.9227 18.9596 20.4257 19.6074 19.778C20.2551 19.1303 20.752 18.3477 21.0628 17.486C21.3514 16.7091 21.4834 15.8827 21.451 15.0546C21.4186 14.2264 21.2226 13.4129 20.8742 12.6609C20.5258 11.9089 20.032 11.2333 19.4212 10.6731C18.8103 10.113 18.0947 9.67929 17.3154 9.39712C17.189 9.30865 17.0626 9.14434 17.0626 8.97372V8.38601C17.0626 8.29754 17.0626 8.25962 17.1068 8.21539Z" fill="white"/>
</g>
</g>
<defs>
<clipPath id="clip0_5041_1220">
<rect width="30.3333" height="30.3333" rx="15.1667" fill="white"/>
</clipPath>
</defs>
</svg>
