<svg width="31" height="28" viewBox="0 0 31 28" fill="none" xmlns="http://www.w3.org/2000/svg">
<g clip-path="url(#clip0_5041_1230)">
<path fill-rule="evenodd" clip-rule="evenodd" d="M5.64908 0.907683L0.294961 12.154C0.274587 12.1958 0.268131 12.2431 0.276536 12.2889C0.284942 12.3346 0.307768 12.3765 0.341677 12.4083L14.8019 26.2647C14.8429 26.3041 14.8976 26.3261 14.9545 26.3261C15.0115 26.3261 15.0662 26.3041 15.1072 26.2647L29.5674 12.4092C29.6013 12.3774 29.6241 12.3355 29.6326 12.2897C29.641 12.244 29.6345 12.1967 29.6141 12.1549L24.26 0.908548C24.2427 0.870778 24.2149 0.838782 24.18 0.816384C24.145 0.793986 24.1043 0.782134 24.0628 0.782243H5.84805C5.80632 0.781724 5.76533 0.793291 5.73002 0.815549C5.69471 0.837807 5.6666 0.869805 5.64908 0.907683Z" fill="#50AF95"/>
<path fill-rule="evenodd" clip-rule="evenodd" d="M16.8121 13.3093C16.7082 13.3171 16.1719 13.3491 14.9755 13.3491C14.0238 13.3491 13.3482 13.3206 13.1112 13.3093C9.43362 13.1475 6.68865 12.5074 6.68865 11.7409C6.68865 10.9744 9.43362 10.3351 13.1112 10.1707V12.6717C13.3517 12.689 14.0403 12.7297 14.9919 12.7297C16.1338 12.7297 16.7057 12.6821 16.8086 12.6726V10.1724C20.4784 10.336 23.2173 10.9761 23.2173 11.7409C23.2173 12.5056 20.4792 13.1458 16.8086 13.3084L16.8121 13.3093ZM16.8121 9.91378V7.67577H21.9335V4.26294H7.98976V7.67577H13.1103V9.91292C8.94829 10.1041 5.81836 10.9285 5.81836 11.9165C5.81836 12.9044 8.94829 13.728 13.1103 13.9201V21.0918H16.8112V13.9175C20.9637 13.7263 24.0884 12.9027 24.0884 11.9156C24.0884 10.9285 20.9663 10.105 16.8112 9.91292L16.8121 9.91378Z" fill="white"/>
</g>
<defs>
<clipPath id="clip0_5041_1230">
<rect width="30.3333" height="27.1404" fill="white"/>
</clipPath>
</defs>
</svg>
