<svg width="31" height="31" viewBox="0 0 31 31" fill="none" xmlns="http://www.w3.org/2000/svg">
<g clip-path="url(#clip0_5041_1077)">
<g clip-path="url(#clip1_5041_1077)">
<mask id="mask0_5041_1077" style="mask-type:luminance" maskUnits="userSpaceOnUse" x="-6" y="0" width="42" height="31">
<path d="M35.3888 0H-5.05566V30.3333H35.3888V0Z" fill="white"/>
</mask>
<g mask="url(#mask0_5041_1077)">
<path d="M-5.05566 0H35.3888V30.3333H-5.05566V0Z" fill="#003399"/>
<path d="M15.1657 4.82642L14.7163 6.32434L15.4653 6.47413L15.1657 4.82642Z" fill="#FFCC00"/>
<path d="M15.1653 4.82642L15.6147 6.32434L14.8657 6.47413L15.1653 4.82642Z" fill="#FFCC00"/>
<path d="M16.5909 5.86206L15.0273 5.89755L15.1163 6.65614L16.5909 5.86206Z" fill="#FFCC00"/>
<path d="M16.5918 5.8623L15.306 6.75259L14.9321 6.08657L16.5918 5.8623Z" fill="#FFCC00"/>
<path d="M16.0473 7.53754L15.5305 6.06152L14.8364 6.38058L16.0473 7.53754Z" fill="#FFCC00"/>
<path d="M16.0477 7.53843L14.8037 6.59072L15.3216 6.0293L16.0477 7.53843Z" fill="#FFCC00"/>
<path d="M13.7402 5.86206L15.3038 5.89755L15.2148 6.65614L13.7402 5.86206Z" fill="#FFCC00"/>
<path d="M13.7393 5.8623L15.025 6.75259L15.3989 6.08657L13.7393 5.8623Z" fill="#FFCC00"/>
<path d="M14.2842 7.53754L14.8011 6.06152L15.495 6.38058L14.2842 7.53754Z" fill="#FFCC00"/>
<path d="M14.2837 7.53843L15.5277 6.59072L15.0099 6.0293L14.2837 7.53843Z" fill="#FFCC00"/>
<path d="M15.1657 22.8013L14.7163 24.2992L15.4653 24.449L15.1657 22.8013Z" fill="#FFCC00"/>
<path d="M15.1653 22.8013L15.6147 24.2992L14.8657 24.449L15.1653 22.8013Z" fill="#FFCC00"/>
<path d="M16.5909 23.8369L15.0273 23.8724L15.1163 24.631L16.5909 23.8369Z" fill="#FFCC00"/>
<path d="M16.5918 23.8374L15.306 24.7277L14.9321 24.0617L16.5918 23.8374Z" fill="#FFCC00"/>
<path d="M16.0473 25.5124L15.5305 24.0364L14.8364 24.3554L16.0473 25.5124Z" fill="#FFCC00"/>
<path d="M16.0477 25.5133L14.8037 24.5656L15.3216 24.0042L16.0477 25.5133Z" fill="#FFCC00"/>
<path d="M13.7402 23.8369L15.3038 23.8724L15.2148 24.631L13.7402 23.8369Z" fill="#FFCC00"/>
<path d="M13.7393 23.8374L15.025 24.7277L15.3989 24.0617L13.7393 23.8374Z" fill="#FFCC00"/>
<path d="M14.2842 25.5124L14.8011 24.0364L15.495 24.3554L14.2842 25.5124Z" fill="#FFCC00"/>
<path d="M14.2837 25.5133L15.5277 24.5656L15.0099 24.0042L14.2837 25.5133Z" fill="#FFCC00"/>
<path d="M6.17839 13.8159L5.729 15.3139L6.47798 15.4637L6.17839 13.8159Z" fill="#FFCC00"/>
<path d="M6.17801 13.8159L6.6274 15.3139L5.87842 15.4637L6.17801 13.8159Z" fill="#FFCC00"/>
<path d="M7.60352 14.8516L6.04004 14.8871L6.12902 15.6457L7.60352 14.8516Z" fill="#FFCC00"/>
<path d="M7.60446 14.8518L6.31873 15.7421L5.94482 15.0761L7.60446 14.8518Z" fill="#FFCC00"/>
<path d="M7.05954 16.5268L6.54261 15.0508L5.84863 15.3698L7.05954 16.5268Z" fill="#FFCC00"/>
<path d="M7.05994 16.5279L5.81592 15.5802L6.33381 15.0188L7.05994 16.5279Z" fill="#FFCC00"/>
<path d="M4.75244 14.8516L6.31592 14.8871L6.22694 15.6457L4.75244 14.8516Z" fill="#FFCC00"/>
<path d="M4.75195 14.8518L6.03768 15.7421L6.41159 15.0761L4.75195 14.8518Z" fill="#FFCC00"/>
<path d="M5.29639 16.5268L5.81332 15.0508L6.50729 15.3698L5.29639 16.5268Z" fill="#FFCC00"/>
<path d="M5.29639 16.5279L6.54041 15.5802L6.02252 15.0188L5.29639 16.5279Z" fill="#FFCC00"/>
<path d="M9.90332 8.80821L11.1473 7.86049L10.6295 7.29907L9.90332 8.80821Z" fill="#FFCC00"/>
<path d="M9.90381 8.80727L10.4207 7.3313L11.1147 7.6503L9.90381 8.80727Z" fill="#FFCC00"/>
<path d="M9.35742 7.13428L10.6432 8.02456L11.0171 7.35854L9.35742 7.13428Z" fill="#FFCC00"/>
<path d="M9.35791 7.13379L10.9214 7.16928L10.8324 7.92792L9.35791 7.13379Z" fill="#FFCC00"/>
<path d="M10.7814 6.09814L10.332 7.59611L11.081 7.7459L10.7814 6.09814Z" fill="#FFCC00"/>
<path d="M10.7815 6.09814L11.2309 7.59611L10.4819 7.7459L10.7815 6.09814Z" fill="#FFCC00"/>
<path d="M11.6635 8.80821L10.4194 7.86049L10.9373 7.29907L11.6635 8.80821Z" fill="#FFCC00"/>
<path d="M11.663 8.80727L11.1461 7.3313L10.4521 7.6503L11.663 8.80727Z" fill="#FFCC00"/>
<path d="M12.2075 7.13428L10.9218 8.02456L10.5479 7.35854L12.2075 7.13428Z" fill="#FFCC00"/>
<path d="M12.2071 7.13379L10.6436 7.16928L10.7326 7.92792L12.2071 7.13379Z" fill="#FFCC00"/>
<path d="M8.33151 12.1428L7.81458 10.6667L7.12061 10.9858L8.33151 12.1428Z" fill="#FFCC00"/>
<path d="M8.33191 12.1437L7.08789 11.1959L7.60578 10.6345L8.33191 12.1437Z" fill="#FFCC00"/>
<path d="M6.56982 12.1417L7.81384 11.194L7.29595 10.6326L6.56982 12.1417Z" fill="#FFCC00"/>
<path d="M6.57031 12.1408L7.08719 10.6648L7.78117 10.9839L6.57031 12.1408Z" fill="#FFCC00"/>
<path d="M6.02588 10.4678L7.31166 11.3581L7.68557 10.692L6.02588 10.4678Z" fill="#FFCC00"/>
<path d="M6.02637 10.4675L7.5899 10.503L7.50087 11.2616L6.02637 10.4675Z" fill="#FFCC00"/>
<path d="M8.87595 10.4678L7.59022 11.3581L7.21631 10.692L8.87595 10.4678Z" fill="#FFCC00"/>
<path d="M8.87549 10.4675L7.31201 10.503L7.40099 11.2616L8.87549 10.4675Z" fill="#FFCC00"/>
<path d="M7.45194 9.43164L7.90132 10.9296L7.15234 11.0794L7.45194 9.43164Z" fill="#FFCC00"/>
<path d="M7.45183 9.43164L7.00244 10.9296L7.75137 11.0794L7.45183 9.43164Z" fill="#FFCC00"/>
<path d="M8.87549 19.4766L7.31201 19.5121L7.40099 20.2706L8.87549 19.4766Z" fill="#FFCC00"/>
<path d="M8.87595 19.4768L7.59022 20.3671L7.21631 19.7011L8.87595 19.4768Z" fill="#FFCC00"/>
<path d="M8.33151 21.1518L7.81458 19.6758L7.12061 19.9948L8.33151 21.1518Z" fill="#FFCC00"/>
<path d="M8.33191 21.1529L7.08789 20.2052L7.60578 19.6438L8.33191 21.1529Z" fill="#FFCC00"/>
<path d="M6.56982 21.151L7.81384 20.2033L7.29595 19.6418L6.56982 21.151Z" fill="#FFCC00"/>
<path d="M6.57031 21.1498L7.08719 19.6738L7.78117 19.9929L6.57031 21.1498Z" fill="#FFCC00"/>
<path d="M7.45194 18.4409L7.90132 19.9388L7.15234 20.0886L7.45194 18.4409Z" fill="#FFCC00"/>
<path d="M7.45183 18.4409L7.00244 19.9388L7.75137 20.0886L7.45183 18.4409Z" fill="#FFCC00"/>
<path d="M6.02832 19.4766L7.59185 19.5121L7.50287 20.2706L6.02832 19.4766Z" fill="#FFCC00"/>
<path d="M6.02783 19.4768L7.31361 20.3671L7.68752 19.7011L6.02783 19.4768Z" fill="#FFCC00"/>
<path d="M12.1279 22.4922L10.5645 22.5277L10.6534 23.2863L12.1279 22.4922Z" fill="#FFCC00"/>
<path d="M12.1284 22.4924L10.8427 23.3827L10.4688 22.7166L12.1284 22.4924Z" fill="#FFCC00"/>
<path d="M11.584 24.1674L11.067 22.6914L10.373 23.0104L11.584 24.1674Z" fill="#FFCC00"/>
<path d="M11.5844 24.1683L10.3403 23.2206L10.8582 22.6592L11.5844 24.1683Z" fill="#FFCC00"/>
<path d="M9.82227 24.1664L11.0663 23.2186L10.5484 22.6572L9.82227 24.1664Z" fill="#FFCC00"/>
<path d="M9.82275 24.1654L10.3396 22.6895L11.0336 23.0085L9.82275 24.1654Z" fill="#FFCC00"/>
<path d="M10.7044 21.4565L11.1538 22.9545L10.4048 23.1043L10.7044 21.4565Z" fill="#FFCC00"/>
<path d="M10.7047 21.4565L10.2554 22.9545L11.0043 23.1043L10.7047 21.4565Z" fill="#FFCC00"/>
<path d="M9.28076 22.4922L10.8443 22.5277L10.7553 23.2863L9.28076 22.4922Z" fill="#FFCC00"/>
<path d="M9.28027 22.4924L10.5661 23.3827L10.94 22.7166L9.28027 22.4924Z" fill="#FFCC00"/>
<path d="M24.1551 13.8159L24.6044 15.3139L23.8555 15.4637L24.1551 13.8159Z" fill="#FFCC00"/>
<path d="M24.155 13.8159L23.7056 15.3139L24.4545 15.4637L24.155 13.8159Z" fill="#FFCC00"/>
<path d="M22.7295 14.8516L24.293 14.8871L24.204 15.6457L22.7295 14.8516Z" fill="#FFCC00"/>
<path d="M22.729 14.8518L24.0147 15.7421L24.3886 15.0761L22.729 14.8518Z" fill="#FFCC00"/>
<path d="M23.2734 16.5268L23.7904 15.0508L24.4843 15.3698L23.2734 16.5268Z" fill="#FFCC00"/>
<path d="M23.2729 16.5279L24.517 15.5802L23.9991 15.0188L23.2729 16.5279Z" fill="#FFCC00"/>
<path d="M25.5806 14.8516L24.0171 14.8871L24.1061 15.6457L25.5806 14.8516Z" fill="#FFCC00"/>
<path d="M25.581 14.8518L24.2953 15.7421L23.9214 15.0761L25.581 14.8518Z" fill="#FFCC00"/>
<path d="M25.0366 16.5268L24.5197 15.0508L23.8257 15.3698L25.0366 16.5268Z" fill="#FFCC00"/>
<path d="M25.037 16.5279L23.793 15.5802L24.3109 15.0188L25.037 16.5279Z" fill="#FFCC00"/>
<path d="M20.4296 8.80821L19.1855 7.86049L19.7034 7.29907L20.4296 8.80821Z" fill="#FFCC00"/>
<path d="M20.4292 8.80727L19.9122 7.3313L19.2183 7.6503L20.4292 8.80727Z" fill="#FFCC00"/>
<path d="M20.976 7.13428L19.6903 8.02456L19.3164 7.35854L20.976 7.13428Z" fill="#FFCC00"/>
<path d="M20.9751 7.13379L19.4116 7.16928L19.5006 7.92792L20.9751 7.13379Z" fill="#FFCC00"/>
<path d="M19.5515 6.09814L20.0009 7.59611L19.252 7.7459L19.5515 6.09814Z" fill="#FFCC00"/>
<path d="M19.5519 6.09814L19.1025 7.59611L19.8515 7.7459L19.5519 6.09814Z" fill="#FFCC00"/>
<path d="M18.6699 8.80821L19.9139 7.86049L19.3961 7.29907L18.6699 8.80821Z" fill="#FFCC00"/>
<path d="M18.6699 8.80727L19.1868 7.3313L19.8808 7.6503L18.6699 8.80727Z" fill="#FFCC00"/>
<path d="M18.1255 7.13428L19.4113 8.02456L19.7852 7.35854L18.1255 7.13428Z" fill="#FFCC00"/>
<path d="M18.126 7.13379L19.6895 7.16928L19.6005 7.92792L18.126 7.13379Z" fill="#FFCC00"/>
<path d="M22.0015 12.1428L22.5184 10.6667L23.2124 10.9858L22.0015 12.1428Z" fill="#FFCC00"/>
<path d="M22.0015 12.1437L23.2455 11.1959L22.7276 10.6345L22.0015 12.1437Z" fill="#FFCC00"/>
<path d="M23.7631 12.1417L22.519 11.194L23.0369 10.6326L23.7631 12.1417Z" fill="#FFCC00"/>
<path d="M23.7626 12.1408L23.2457 10.6648L22.5518 10.9839L23.7626 12.1408Z" fill="#FFCC00"/>
<path d="M24.3076 10.4678L23.0219 11.3581L22.6479 10.692L24.3076 10.4678Z" fill="#FFCC00"/>
<path d="M24.3067 10.4675L22.7432 10.503L22.8322 11.2616L24.3067 10.4675Z" fill="#FFCC00"/>
<path d="M21.457 10.4678L22.7428 11.3581L23.1167 10.692L21.457 10.4678Z" fill="#FFCC00"/>
<path d="M21.4575 10.4675L23.021 10.503L22.932 11.2616L21.4575 10.4675Z" fill="#FFCC00"/>
<path d="M22.8815 9.43164L22.4321 10.9296L23.1811 11.0794L22.8815 9.43164Z" fill="#FFCC00"/>
<path d="M22.8811 9.43164L23.3305 10.9296L22.5815 11.0794L22.8811 9.43164Z" fill="#FFCC00"/>
<path d="M21.4575 19.4766L23.021 19.5121L22.932 20.2706L21.4575 19.4766Z" fill="#FFCC00"/>
<path d="M21.457 19.4768L22.7428 20.3671L23.1167 19.7011L21.457 19.4768Z" fill="#FFCC00"/>
<path d="M22.0015 21.1518L22.5184 19.6758L23.2124 19.9948L22.0015 21.1518Z" fill="#FFCC00"/>
<path d="M22.0015 21.1529L23.2455 20.2052L22.7276 19.6438L22.0015 21.1529Z" fill="#FFCC00"/>
<path d="M23.7631 21.151L22.519 20.2033L23.0369 19.6418L23.7631 21.151Z" fill="#FFCC00"/>
<path d="M23.7626 21.1498L23.2457 19.6738L22.5518 19.9929L23.7626 21.1498Z" fill="#FFCC00"/>
<path d="M22.8815 18.4409L22.4321 19.9388L23.1811 20.0886L22.8815 18.4409Z" fill="#FFCC00"/>
<path d="M22.8811 18.4409L23.3305 19.9388L22.5815 20.0886L22.8811 18.4409Z" fill="#FFCC00"/>
<path d="M24.3047 19.4766L22.7412 19.5121L22.8302 20.2706L24.3047 19.4766Z" fill="#FFCC00"/>
<path d="M24.3052 19.4768L23.0194 20.3671L22.6455 19.7011L24.3052 19.4768Z" fill="#FFCC00"/>
<path d="M18.2051 22.4922L19.7686 22.5277L19.6796 23.2863L18.2051 22.4922Z" fill="#FFCC00"/>
<path d="M18.2046 22.4924L19.4903 23.3827L19.8642 22.7166L18.2046 22.4924Z" fill="#FFCC00"/>
<path d="M18.749 24.1674L19.266 22.6914L19.9599 23.0104L18.749 24.1674Z" fill="#FFCC00"/>
<path d="M18.7485 24.1683L19.9926 23.2206L19.4747 22.6592L18.7485 24.1683Z" fill="#FFCC00"/>
<path d="M20.5106 24.1664L19.2666 23.2186L19.7845 22.6572L20.5106 24.1664Z" fill="#FFCC00"/>
<path d="M20.5102 24.1654L19.9933 22.6895L19.2993 23.0085L20.5102 24.1654Z" fill="#FFCC00"/>
<path d="M19.6286 21.4565L19.1792 22.9545L19.9282 23.1043L19.6286 21.4565Z" fill="#FFCC00"/>
<path d="M19.6287 21.4565L20.078 22.9545L19.3291 23.1043L19.6287 21.4565Z" fill="#FFCC00"/>
<path d="M21.0523 22.4922L19.4888 22.5277L19.5778 23.2863L21.0523 22.4922Z" fill="#FFCC00"/>
<path d="M21.0528 22.4924L19.767 23.3827L19.3931 22.7166L21.0528 22.4924Z" fill="#FFCC00"/>
</g>
</g>
</g>
<defs>
<clipPath id="clip0_5041_1077">
<rect width="30.3333" height="30.3333" rx="15.1667" fill="white"/>
</clipPath>
<clipPath id="clip1_5041_1077">
<rect width="40.4445" height="30.3333" fill="white" transform="translate(-5.05566)"/>
</clipPath>
</defs>
</svg>
