<svg width="31" height="31" viewBox="0 0 31 31" fill="none" xmlns="http://www.w3.org/2000/svg">
<g clip-path="url(#clip0_5041_1236)">
<path fill-rule="evenodd" clip-rule="evenodd" d="M15.1667 0C23.543 0 30.3333 6.79034 30.3333 15.1667C30.3333 23.543 23.543 30.3333 15.1667 30.3333C6.79032 30.3333 0 23.543 0 15.1667C0 6.79032 6.79034 0 15.1667 0Z" fill="#2775CA"/>
<path fill-rule="evenodd" clip-rule="evenodd" d="M18.6324 4.48733C18.2904 4.37807 18.0107 4.58107 18.0107 4.94014V5.8232C18.0107 6.06395 18.1921 6.33797 18.4182 6.42081C22.0484 7.75043 24.6461 11.2397 24.6461 15.3249C24.6461 19.41 22.0484 22.8991 18.4182 24.2288C18.1703 24.3196 18.0107 24.5625 18.0107 24.8265V25.7094C18.0107 26.0686 18.2904 26.2715 18.6324 26.1623C23.2199 24.6965 26.5419 20.3986 26.5419 15.3249C26.5419 10.2511 23.2199 5.95309 18.6324 4.48733Z" fill="white"/>
<path fill-rule="evenodd" clip-rule="evenodd" d="M12.3233 4.94014C12.3233 4.58107 12.0436 4.37807 11.7016 4.48733C7.11397 5.95309 3.79199 10.251 3.79199 15.3249C3.79199 20.3988 7.11397 24.6965 11.7016 26.1623C12.0436 26.2715 12.3233 26.0686 12.3233 25.7094V24.8265C12.3233 24.5857 12.1418 24.3116 11.9157 24.2288C8.28561 22.8991 5.68783 19.4099 5.68783 15.3249C5.68783 11.2399 8.28561 7.75043 11.9157 6.42082C12.1418 6.33797 12.3233 6.06395 12.3233 5.82319V4.94014Z" fill="white"/>
<path d="M19.0455 18.2846L18.1779 17.897C17.9869 17.8117 17.7617 17.8915 17.6691 18.0792C17.2597 18.9102 16.5791 19.4399 15.68 19.4399C14.8661 19.4399 14.2133 19.0413 13.7129 18.2358C13.5173 17.9242 13.3619 17.5763 13.2436 17.1952H15.5734C15.721 17.1952 15.8561 17.112 15.9227 16.9801L16.4786 16.2299C16.6101 15.9695 16.4209 15.6621 16.1294 15.6621H12.9814C12.9723 15.5006 12.9668 15.3361 12.9668 15.1665C12.965 14.9984 12.9698 14.8337 12.9785 14.6714H15.5734C15.721 14.6714 15.8561 14.5884 15.9227 14.4565L16.4786 13.7062C16.6102 13.4458 16.4209 13.1384 16.1294 13.1384H13.2407C13.6632 11.7609 14.5452 10.8584 15.68 10.8761C16.5448 10.8761 17.2161 11.3496 17.6467 12.1249C17.7432 12.2987 17.9604 12.3653 18.1422 12.2851L19.0143 11.9001C19.223 11.8079 19.3117 11.5556 19.2013 11.3561C18.3962 9.90217 17.2225 9.17188 15.68 9.17188C14.2725 9.17188 13.1448 9.73147 12.2884 10.8422C11.7879 11.4964 11.4395 12.264 11.2327 13.1384H9.9659C9.81822 13.1384 9.68311 13.2215 9.61655 13.3533L9.0606 14.1036C8.92913 14.364 9.11832 14.6714 9.40995 14.6714H11.0234C11.0156 14.8343 11.0082 14.9975 11.0082 15.1665C11.0061 15.3339 11.0101 15.4987 11.0171 15.6621H9.9659C9.81822 15.6621 9.68311 15.7452 9.61655 15.877L9.0606 16.6273C8.92913 16.8876 9.11832 17.1952 9.40995 17.1952H11.229C11.8043 19.573 13.4606 21.1946 15.68 21.1611C17.2559 21.1611 18.4435 20.3777 19.2364 18.8178C19.3374 18.6192 19.2489 18.3755 19.0455 18.2846Z" fill="white"/>
</g>
<defs>
<clipPath id="clip0_5041_1236">
<rect width="30.3333" height="30.3333" fill="white"/>
</clipPath>
</defs>
</svg>
