<svg width="94" height="32" viewBox="0 0 94 32" fill="none" xmlns="http://www.w3.org/2000/svg">
<rect width="32" height="32" rx="16" fill="#151311"/>
<g clip-path="url(#clip0_5044_4981)">
<rect x="3.55518" y="3.55469" width="24.8889" height="24.8889" rx="12.4444" fill="white"/>
<circle cx="20.8392" cy="22.2214" r="15.9012" fill="url(#paint0_radial_5044_4981)"/>
<circle cx="13.3821" cy="13.3819" r="20.8889" fill="url(#paint1_radial_5044_4981)"/>
<circle cx="20.8391" cy="9.77693" r="17.2839" fill="url(#paint2_radial_5044_4981)"/>
<circle cx="9.08585" cy="21.53" r="15.2099" fill="url(#paint3_radial_5044_4981)"/>
<circle cx="15.9993" cy="15.9991" r="7.11111" fill="#151311"/>
</g>
<path d="M36.7998 0.799988V31.2" stroke="#C3C6CB" stroke-width="0.4"/>
<path d="M51.7121 25.3072C49.9372 25.3072 48.3756 24.9147 47.0273 24.1296C45.679 23.3445 44.6209 22.2608 43.8529 20.8784C43.102 19.4789 42.7265 17.8661 42.7265 16.04C42.7265 14.2139 43.102 12.6096 43.8529 11.2272C44.6209 9.82773 45.679 8.73547 47.0273 7.9504C48.3756 7.16533 49.9372 6.7728 51.7121 6.7728C53.487 6.7728 55.0486 7.16533 56.3969 7.9504C57.7622 8.73547 58.8204 9.82773 59.5713 11.2272C60.3393 12.6096 60.7233 14.2139 60.7233 16.04C60.7233 17.8661 60.3393 19.4789 59.5713 20.8784C58.8204 22.2608 57.7622 23.3445 56.3969 24.1296C55.0486 24.9147 53.487 25.3072 51.7121 25.3072ZM51.7121 22.2096C52.8214 22.2096 53.7857 21.9621 54.6049 21.4672C55.4241 20.9552 56.0556 20.2384 56.4993 19.3168C56.9601 18.3952 57.1905 17.3029 57.1905 16.04C57.1905 14.76 56.9601 13.6677 56.4993 12.7632C56.0556 11.8416 55.4241 11.1333 54.6049 10.6384C53.7857 10.1435 52.8214 9.896 51.7121 9.896C50.6028 9.896 49.6385 10.1435 48.8193 10.6384C48.0001 11.1333 47.3601 11.8416 46.8993 12.7632C46.4556 13.6677 46.2337 14.76 46.2337 16.04C46.2337 17.3029 46.4556 18.3952 46.8993 19.3168C47.3601 20.2384 48.0001 20.9552 48.8193 21.4672C49.6385 21.9621 50.6028 22.2096 51.7121 22.2096ZM63.4123 25V12.3024H66.4843L66.8171 14.7344C67.1414 14.1371 67.5254 13.6421 67.9691 13.2496C68.4128 12.84 68.9248 12.5328 69.5051 12.328C70.1024 12.1061 70.7595 11.9952 71.4763 11.9952V15.656H70.5291C69.983 15.656 69.4795 15.7157 69.0187 15.8352C68.575 15.9547 68.191 16.1509 67.8667 16.424C67.5595 16.6971 67.312 17.0725 67.1243 17.5504C66.9536 18.0112 66.8683 18.5915 66.8683 19.2912V25H63.4123ZM82.0865 25L76.5569 18.0112L81.4465 12.3024H85.5425L79.1937 19.4448V16.7056L86.3873 25H82.0865ZM73.6129 25V6.6192H77.0689V25H73.6129ZM88.4153 25V12.3024H91.8713V25H88.4153ZM90.1561 10.4848C89.5246 10.4848 89.0126 10.2971 88.6201 9.9216C88.2276 9.54613 88.0313 9.08533 88.0313 8.5392C88.0313 7.976 88.2276 7.5152 88.6201 7.1568C89.0126 6.78133 89.5246 6.5936 90.1561 6.5936C90.7876 6.5936 91.2996 6.78133 91.6921 7.1568C92.1017 7.5152 92.3065 7.976 92.3065 8.5392C92.3065 9.08533 92.1017 9.54613 91.6921 9.9216C91.2996 10.2971 90.7876 10.4848 90.1561 10.4848Z" fill="#242628"/>
<defs>
<radialGradient id="paint0_radial_5044_4981" cx="0" cy="0" r="1" gradientUnits="userSpaceOnUse" gradientTransform="translate(21.6343 22.2214) rotate(56.9132) scale(26.4052)">
<stop stop-color="#AEACFF"/>
<stop offset="1" stop-color="white" stop-opacity="0"/>
</radialGradient>
<radialGradient id="paint1_radial_5044_4981" cx="0" cy="0" r="1" gradientUnits="userSpaceOnUse" gradientTransform="translate(12.5425 13.2337) rotate(-140.826) scale(24.0787)">
<stop offset="0.0392985" stop-color="#2D29D7"/>
<stop offset="1" stop-color="white" stop-opacity="0"/>
</radialGradient>
<radialGradient id="paint2_radial_5044_4981" cx="0" cy="0" r="1" gradientUnits="userSpaceOnUse" gradientTransform="translate(21.7033 9.77693) rotate(90) scale(14.6914)">
<stop stop-color="#F3BA2F"/>
<stop offset="1" stop-color="white" stop-opacity="0"/>
</radialGradient>
<radialGradient id="paint3_radial_5044_4981" cx="0" cy="0" r="1" gradientUnits="userSpaceOnUse" gradientTransform="translate(9.08585 21.53) rotate(86.6335) scale(12.9507)">
<stop stop-color="#37F2AD"/>
<stop offset="1" stop-color="white" stop-opacity="0"/>
</radialGradient>
<clipPath id="clip0_5044_4981">
<rect x="3.55518" y="3.55469" width="24.8889" height="24.8889" rx="12.4444" fill="white"/>
</clipPath>
</defs>
</svg>
