<svg width="24" height="24" viewBox="0 0 24 24" fill="none" xmlns="http://www.w3.org/2000/svg">
<path fill-rule="evenodd" clip-rule="evenodd" d="M5.57982 3.0466C4.84682 3.1866 4.17982 3.8676 4.04282 4.6166C4.01282 4.7816 3.99982 7.0196 3.99982 11.9266V18.9996H3.42682C2.74082 18.9996 2.54582 19.0516 2.29882 19.2986C2.20588 19.3902 2.13207 19.4993 2.08169 19.6196C2.03132 19.74 2.00537 19.8691 2.00537 19.9996C2.00537 20.1301 2.03132 20.2592 2.08169 20.3796C2.13207 20.4999 2.20588 20.609 2.29882 20.7006C2.62482 21.0266 1.73582 20.9996 11.9998 20.9996C22.2638 20.9996 21.3748 21.0266 21.7008 20.7006C21.8808 20.5206 21.9998 20.2416 21.9998 19.9996C21.9998 19.7576 21.8808 19.4786 21.7008 19.2986C21.4538 19.0516 21.2588 18.9996 20.5728 18.9996H19.9998V14.9266C19.9998 12.1746 19.9858 10.7776 19.9568 10.6166C19.8158 9.8486 19.1508 9.1836 18.3828 9.0426C18.2378 9.0166 17.5288 8.9996 16.5728 8.9996H14.9998V6.9266C14.9998 5.6106 14.9838 4.7676 14.9568 4.6166C14.8158 3.8486 14.1508 3.1836 13.3828 3.0426C13.0798 2.9876 5.87182 2.9906 5.57982 3.0466ZM12.9998 11.9996V18.9996H5.99982V4.9996H12.9998V11.9996ZM8.23982 7.0356C8.09408 7.08237 7.95968 7.15898 7.84519 7.26056C7.73069 7.36214 7.63862 7.48646 7.57482 7.6256C7.54482 7.6976 7.51982 7.8666 7.51982 7.9996C7.51982 8.1326 7.54482 8.3016 7.57482 8.3736C7.65282 8.5616 7.86582 8.7896 8.05582 8.8916C8.21482 8.9766 8.25882 8.9796 9.49982 8.9796C10.7408 8.9796 10.7848 8.9766 10.9438 8.8916C11.1338 8.7896 11.3468 8.5616 11.4248 8.3736C11.4548 8.3016 11.4798 8.1326 11.4798 7.9996C11.4798 7.8666 11.4548 7.6976 11.4248 7.6256C11.3196 7.4089 11.1521 7.22854 10.9438 7.1076C10.7868 7.0226 10.7308 7.0196 9.55982 7.0116C8.88882 7.0076 8.29482 7.0186 8.23982 7.0356ZM8.23982 11.0356C8.09408 11.0824 7.95968 11.159 7.84519 11.2606C7.73069 11.3621 7.63862 11.4865 7.57482 11.6256C7.54482 11.6976 7.51982 11.8666 7.51982 11.9996C7.51982 12.1326 7.54482 12.3016 7.57482 12.3736C7.65282 12.5616 7.86582 12.7896 8.05582 12.8916C8.21482 12.9766 8.25882 12.9796 9.49982 12.9796C10.7408 12.9796 10.7848 12.9766 10.9438 12.8916C11.1338 12.7896 11.3468 12.5616 11.4248 12.3736C11.4548 12.3016 11.4798 12.1326 11.4798 11.9996C11.4798 11.8666 11.4548 11.6976 11.4248 11.6256C11.3196 11.4089 11.1521 11.2285 10.9438 11.1076C10.7868 11.0226 10.7308 11.0196 9.55982 11.0116C8.88882 11.0076 8.29482 11.0186 8.23982 11.0356ZM17.9998 14.9996V18.9996H14.9998V10.9996H17.9998V14.9996ZM8.23982 15.0356C8.09408 15.0824 7.95968 15.159 7.84519 15.2606C7.73069 15.3621 7.63862 15.4865 7.57482 15.6256C7.54482 15.6976 7.51982 15.8666 7.51982 15.9996C7.51982 16.1326 7.54482 16.3016 7.57482 16.3736C7.65282 16.5616 7.86582 16.7896 8.05582 16.8916C8.21482 16.9766 8.25882 16.9796 9.49982 16.9796C10.7408 16.9796 10.7848 16.9766 10.9438 16.8916C11.1338 16.7896 11.3468 16.5616 11.4248 16.3736C11.4548 16.3016 11.4798 16.1326 11.4798 15.9996C11.4798 15.8666 11.4548 15.6976 11.4248 15.6256C11.3196 15.4089 11.1521 15.2285 10.9438 15.1076C10.7868 15.0226 10.7308 15.0196 9.55982 15.0116C8.88882 15.0076 8.29482 15.0186 8.23982 15.0356Z" fill="#783FE4"/>
</svg>
