<svg width="24" height="24" viewBox="0 0 24 24" fill="none" xmlns="http://www.w3.org/2000/svg">
<path fill-rule="evenodd" clip-rule="evenodd" d="M9.94388 3.25H14.0559C15.8939 3.25 17.3499 3.25 18.4889 3.403C19.6609 3.561 20.6099 3.893 21.3589 4.641C22.1069 5.39 22.4389 6.339 22.5969 7.511C22.6869 8.184 22.7239 8.967 22.7389 9.874C22.7513 9.95007 22.7526 10.0275 22.7429 10.104C22.7489 10.6693 22.7512 11.2827 22.7499 11.944V12.056C22.7499 13.894 22.7499 15.35 22.5969 16.489C22.4389 17.661 22.1069 18.61 21.3589 19.359C20.6099 20.107 19.6609 20.439 18.4889 20.597C17.3489 20.75 15.8939 20.75 14.0559 20.75H9.94388C8.10588 20.75 6.64988 20.75 5.51088 20.597C4.33888 20.439 3.38988 20.107 2.64088 19.359C1.89288 18.61 1.56088 17.661 1.40288 16.489C1.24988 15.349 1.24988 13.894 1.24988 12.056V11.944C1.24854 11.2827 1.25088 10.6693 1.25688 10.104C1.24679 10.0276 1.2478 9.95012 1.25988 9.874C1.27588 8.967 1.31288 8.184 1.40288 7.511C1.56088 6.339 1.89288 5.39 2.64088 4.641C3.38988 3.893 4.33888 3.561 5.51088 3.403C6.65088 3.25 8.10588 3.25 9.94388 3.25ZM2.75188 10.75C2.75054 11.138 2.74988 11.5547 2.74988 12C2.74988 13.907 2.75188 15.262 2.88988 16.29C3.02488 17.295 3.27888 17.875 3.70188 18.298C4.12488 18.721 4.70488 18.975 5.71088 19.11C6.73888 19.248 8.09288 19.25 9.99988 19.25H13.9999C15.9069 19.25 17.2619 19.248 18.2899 19.11C19.2949 18.975 19.8749 18.721 20.2979 18.298C20.7209 17.875 20.9749 17.295 21.1099 16.289C21.2479 15.261 21.2499 13.907 21.2499 12C21.2499 11.5547 21.2492 11.138 21.2479 10.75H2.75188ZM21.2239 9.25H2.77588C2.79588 8.663 2.82988 8.156 2.88988 7.71C3.02488 6.705 3.27888 6.125 3.70188 5.702C4.12488 5.279 4.70488 5.025 5.71088 4.89C6.73888 4.752 8.09288 4.75 9.99988 4.75H13.9999C15.9069 4.75 17.2619 4.752 18.2899 4.89C19.2949 5.025 19.8749 5.279 20.2979 5.702C20.7209 6.125 20.9749 6.705 21.1099 7.711C21.1699 8.156 21.2039 8.663 21.2239 9.25ZM5.24988 16C5.24988 15.8011 5.32889 15.6103 5.46955 15.4697C5.6102 15.329 5.80096 15.25 5.99988 15.25H9.99988C10.1988 15.25 10.3896 15.329 10.5302 15.4697C10.6709 15.6103 10.7499 15.8011 10.7499 16C10.7499 16.1989 10.6709 16.3897 10.5302 16.5303C10.3896 16.671 10.1988 16.75 9.99988 16.75H5.99988C5.80096 16.75 5.6102 16.671 5.46955 16.5303C5.32889 16.3897 5.24988 16.1989 5.24988 16ZM11.7499 16C11.7499 15.8011 11.8289 15.6103 11.9695 15.4697C12.1102 15.329 12.301 15.25 12.4999 15.25H13.9999C14.1988 15.25 14.3896 15.329 14.5302 15.4697C14.6709 15.6103 14.7499 15.8011 14.7499 16C14.7499 16.1989 14.6709 16.3897 14.5302 16.5303C14.3896 16.671 14.1988 16.75 13.9999 16.75H12.4999C12.301 16.75 12.1102 16.671 11.9695 16.5303C11.8289 16.3897 11.7499 16.1989 11.7499 16Z" fill="#783FE4"/>
</svg>
