<svg width="20" height="20" viewBox="0 0 20 20" fill="none" xmlns="http://www.w3.org/2000/svg">
<path d="M15.3665 2.5498H4.63314C4.08108 2.55134 3.55207 2.77133 3.1617 3.1617C2.77133 3.55207 2.55134 4.08108 2.5498 4.63314V15.3665C2.55134 15.9185 2.77133 16.4475 3.1617 16.8379C3.55207 17.2283 4.08108 17.4483 4.63314 17.4498H15.3665C15.919 17.4498 16.4489 17.2303 16.8396 16.8396C17.2303 16.4489 17.4498 15.919 17.4498 15.3665V4.63314C17.4498 4.0806 17.2303 3.5507 16.8396 3.16C16.4489 2.7693 15.919 2.5498 15.3665 2.5498ZM16.6165 15.3665C16.6141 15.6973 16.4816 16.0138 16.2477 16.2477C16.0138 16.4816 15.6973 16.6141 15.3665 16.6165H4.63314C4.30236 16.6141 3.98581 16.4816 3.75191 16.2477C3.518 16.0138 3.38554 15.6973 3.38314 15.3665V4.63314C3.38554 4.30236 3.518 3.98581 3.75191 3.75191C3.98581 3.518 4.30236 3.38554 4.63314 3.38314H15.3665C15.6973 3.38554 16.0138 3.518 16.2477 3.75191C16.4816 3.98581 16.6141 4.30236 16.6165 4.63314V15.3665Z" fill="#242628"/>
<path d="M5.31348 8.95638C5.31348 8.73537 5.40127 8.52341 5.55755 8.36712C5.71383 8.21084 5.9258 8.12305 6.14681 8.12305C6.36782 8.12305 6.57979 8.21084 6.73607 8.36712C6.89235 8.52341 6.98014 8.73537 6.98014 8.95638V14.373C6.98014 14.5941 6.89235 14.806 6.73607 14.9623C6.57979 15.1186 6.36782 15.2064 6.14681 15.2064C5.9258 15.2064 5.71383 15.1186 5.55755 14.9623C5.40127 14.806 5.31348 14.5941 5.31348 14.373V8.95638Z" fill="#242628"/>
<path d="M6.14681 6.45378C6.60705 6.45378 6.98014 6.08068 6.98014 5.62044C6.98014 5.16021 6.60705 4.78711 6.14681 4.78711C5.68657 4.78711 5.31348 5.16021 5.31348 5.62044C5.31348 6.08068 5.68657 6.45378 6.14681 6.45378Z" fill="#242628"/>
<path d="M14.6832 11.142V14.3753C14.6832 14.5963 14.5954 14.8083 14.4391 14.9646C14.2828 15.1208 14.0709 15.2086 13.8499 15.2086C13.6289 15.2086 13.4169 15.1208 13.2606 14.9646C13.1043 14.8083 13.0165 14.5963 13.0165 14.3753V11.142C13.0165 10.785 12.8747 10.4427 12.6224 10.1903C12.37 9.93792 12.0276 9.79613 11.6707 9.79613C11.3138 9.79613 10.9714 9.93792 10.7191 10.1903C10.4667 10.4427 10.3249 10.785 10.3249 11.142V14.3753C10.3249 14.5963 10.2371 14.8083 10.0808 14.9646C9.92451 15.1208 9.71255 15.2086 9.49154 15.2086C9.27052 15.2086 9.05856 15.1208 8.90228 14.9646C8.746 14.8083 8.6582 14.5963 8.6582 14.3753V8.95863C8.66164 8.73869 8.75054 8.52871 8.90608 8.37317C9.06162 8.21763 9.27159 8.12873 9.49154 8.12529C9.63268 8.12143 9.77225 8.15579 9.89547 8.22473C10.0187 8.29368 10.121 8.39465 10.1915 8.51696C10.6497 8.25699 11.1681 8.12193 11.6949 8.12529C12.2217 8.12866 12.7384 8.27034 13.1932 8.53614C13.648 8.80195 14.0251 9.18256 14.2865 9.63987C14.548 10.0972 14.6848 10.6152 14.6832 11.142Z" fill="#242628"/>
</svg>
