<svg width="40" height="40" viewBox="0 0 40 40" fill="none" xmlns="http://www.w3.org/2000/svg">
<path d="M27.2558 5.12599C27.1061 5.11536 26.9557 5.13481 26.8136 5.18318L0.858628 13.376C0.159878 13.576 -0.138872 14.2751 0.0608158 14.8751L5.05144 28.6635C5.25144 29.2629 6.05019 29.9622 6.64925 30.0622L30.2086 34.8582C30.9077 34.9582 31.7058 34.6597 32.1052 34.0604L39.7921 22.0697C40.1914 21.4701 39.9921 20.7697 39.393 20.3704L30.0086 13.8766C29.4096 13.4772 28.9118 12.6766 28.8118 11.9772L28.1124 5.98256C28.0374 5.45818 27.6814 5.15849 27.2558 5.12599ZM24.2489 8.02068C24.5811 8.04412 24.6177 8.30568 24.318 8.68006L18.4289 15.9751C18.0299 16.4747 17.1314 16.8744 16.4327 16.6744L5.4505 14.476C4.75175 14.376 4.75175 14.0766 5.4505 13.8769L23.8193 8.08099C23.9936 8.03099 24.138 8.01287 24.2489 8.02068ZM26.3489 8.86506C26.5724 8.82506 26.7511 9.00506 26.8136 9.37974L29.0105 29.7635C29.1102 30.4629 28.8105 30.5616 28.4111 29.9619L19.9264 18.8713C19.5271 18.3716 19.5271 17.4729 19.9264 16.9732L25.9155 9.17943C26.0655 8.99193 26.2152 8.88881 26.3489 8.86506ZM3.21082 15.6607C3.28582 15.6578 3.36696 15.6625 3.45425 15.6747L16.3324 18.3722C17.0311 18.4722 17.9296 19.071 18.3289 19.5707L27.6133 31.6613C28.0127 32.1613 27.813 32.5607 27.1143 32.361L8.04644 28.5632C7.34738 28.4632 6.64863 27.7638 6.44894 27.1644L2.65613 16.5744C2.48113 16.0497 2.688 15.6785 3.21082 15.6607ZM29.7339 15.9716C29.8868 15.9582 30.0846 16.0238 30.3089 16.1738L37.0964 20.871C37.6952 21.271 37.7964 22.0691 37.4967 22.5688L31.8061 31.361C31.4071 31.9604 31.1068 31.8616 31.0068 31.1622L29.4093 16.6751C29.3468 16.2376 29.4796 15.9944 29.7343 15.9719L29.7339 15.9716Z" fill="#112A46"/>
</svg>
