<svg width="40" height="40" viewBox="0 0 40 40" fill="none" xmlns="http://www.w3.org/2000/svg">
<path d="M33.5167 27.9383C33.4781 27.9371 33.4402 27.9276 33.4057 27.9103C33.3712 27.893 33.3408 27.8685 33.3167 27.8383C33.2928 27.8082 33.2761 27.773 33.268 27.7354C33.2599 27.6979 33.2606 27.6589 33.27 27.6217C33.5407 26.572 33.6774 25.4923 33.6767 24.4083C33.6767 17.1033 27.5533 11.175 20 11.175C12.4467 11.175 6.32334 17.1033 6.32334 24.4083C6.32334 25.52 6.465 26.5967 6.73 27.62C6.73935 27.6577 6.73999 27.6971 6.73189 27.7351C6.72378 27.7732 6.70715 27.8089 6.68323 27.8395C6.65931 27.8702 6.62874 27.895 6.59382 27.9121C6.5589 27.9292 6.52056 27.9382 6.48167 27.9383C6.43459 27.9366 6.38896 27.9216 6.35004 27.8951C6.31112 27.8685 6.28048 27.8315 6.26167 27.7883C5.26105 25.5054 4.84513 23.009 5.0515 20.5249C5.25788 18.0409 6.08005 15.6474 7.44369 13.5608C8.80733 11.4743 10.6695 9.76043 12.8617 8.57423C15.054 7.38802 17.5074 6.76685 20 6.76685C22.4926 6.76685 24.946 7.38802 27.1383 8.57423C29.3306 9.76043 31.1927 11.4743 32.5563 13.5608C33.92 15.6474 34.7421 18.0409 34.9485 20.5249C35.1549 23.009 34.739 25.5054 33.7383 27.7883C33.7195 27.8315 33.6889 27.8685 33.65 27.8951C33.611 27.9216 33.5637 27.9366 33.5167 27.9383ZM20 33.2333C22.1063 33.2333 24.1263 32.3966 25.6156 30.9073C27.105 29.4179 27.9417 27.3979 27.9417 25.2917C27.9417 23.1854 27.105 21.1654 25.6156 19.6761C24.1263 18.1867 22.1063 17.35 20 17.35C17.8937 17.35 15.8737 18.1867 14.3844 19.6761C12.895 21.1654 12.0583 23.1854 12.0583 25.2917C12.0583 27.3979 12.895 29.4179 14.3844 30.9073C15.8737 32.3966 17.8937 33.2333 20 33.2333Z" fill="black"/>
</svg>
