<svg width="40" height="44" viewBox="0 0 40 44" fill="none" xmlns="http://www.w3.org/2000/svg">
<path fill-rule="evenodd" clip-rule="evenodd" d="M23.642 0.977659L36.358 8.32613C37.4695 8.9729 38.3906 9.89658 39.0296 11.0053C39.6685 12.1139 40.0031 13.369 40 14.6454V29.3497C40 31.9532 38.6074 34.3611 36.3555 35.669L23.642 43.0223C22.5372 43.6626 21.2801 44 20 44C18.7199 44 17.4628 43.6626 16.358 43.0223L3.64197 35.669C2.53212 35.0204 1.6124 34.0963 0.973679 32.988C0.334961 31.8797 -0.000651433 30.6257 9.4929e-07 29.3497V14.643C-0.000651433 13.367 0.334961 12.1129 0.973679 11.0047C1.6124 9.8964 2.53212 8.97231 3.64197 8.32368L16.358 0.977659C17.4628 0.337444 18.7199 0 20 0C21.2801 0 22.5372 0.337444 23.642 0.977659ZM26.3086 30.0195L30.0913 23.4606C30.1555 23.3466 30.2123 23.2309 30.2617 23.1135C30.4307 22.6992 30.5019 22.2521 30.4698 21.8064C30.4377 21.3607 30.3032 20.9282 30.0765 20.5418L26.2938 13.9829C26.0426 13.5402 25.677 13.1717 25.2344 12.9152C24.7917 12.6587 24.2881 12.5235 23.7753 12.5235H16.2123C15.1704 12.5235 14.2074 13.0784 13.6889 13.9829L9.90864 20.5418C9.39012 21.4463 9.39012 22.5561 9.90864 23.4606L13.6963 30.0195C13.9496 30.4609 14.3161 30.8283 14.7588 31.0845C15.2014 31.3408 15.7045 31.4768 16.2173 31.4789H23.7876C23.8535 31.4789 23.9185 31.4773 23.9827 31.474C24.9481 31.408 25.8247 30.8678 26.3086 30.0195Z" fill="black"/>
</svg>
