<svg width="1137" height="1026" viewBox="0 0 1137 1026" fill="none" xmlns="http://www.w3.org/2000/svg">
<path d="M568.487 1024.62C693.966 1024.62 795.687 718.431 795.687 340.725C795.687 -36.9817 693.966 -343.173 568.487 -343.173M568.487 1024.62C443.008 1024.62 341.287 718.431 341.287 340.725C341.287 -36.9817 443.008 -343.173 568.487 -343.173M568.487 1024.62C882.185 1024.62 1136.49 718.431 1136.49 340.725C1136.49 -36.9817 882.185 -343.173 568.487 -343.173M568.487 1024.62C254.789 1024.62 0.486816 718.431 0.486816 340.725C0.486816 -36.9817 254.789 -343.173 568.487 -343.173M0.486816 374.92H1136.49" stroke="#1E1F25" stroke-opacity="0.07" stroke-width="0.973436"/>
</svg>
